<svg xmlns="http://www.w3.org/2000/svg" width="55" height="55" fill="none" viewBox="0 0 55 55"><path fill="#cce474" d="M0 0h55v55H0z"/><path fill="#fff" d="M35 35h11v11H35z"/><path fill="#232021" d="M35 35h11v11H35z"/><path fill="#fff" d="M39 39h3v3h-3z"/><path fill="#cce474" d="M39 39h3v3h-3z"/><path fill="#fff" d="M9 35h11v11H9z"/><path fill="#232021" d="M9 35h11v11H9z"/><path fill="#fff" d="M13 39h3v3h-3z"/><path fill="#cce474" d="M13 39h3v3h-3z"/><path fill="#fff" d="M22 9h11v11H22z"/><path fill="#232021" d="M22 9h11v11H22z"/><path fill="#fff" d="M26 13h3v3h-3z"/><path fill="#cce474" d="M26 13h3v3h-3z"/><path fill="#fff" d="M29 26h13v9h-3v-6H16.025v6h-3v-6H13v-3h13v-6h3z"/><path fill="#fff" d="M29 26h13v9h-3v-6H16.025v6h-3v-6H13v-3h13v-6h3z"/></svg>